<!DOCTYPE svg PUBLIC "-//W3C//DTD SVG 1.1//EN" "http://www.w3.org/Graphics/SVG/1.1/DTD/svg11.dtd">
<!-- Uploaded to: SVG Repo, www.svgrepo.com, Transformed by: SVG Repo Mixer Tools -->
<svg fill="#ffffff" height="800px" width="800px" version="1.1" id="Layer_1" xmlns="http://www.w3.org/2000/svg" xmlns:xlink="http://www.w3.org/1999/xlink" viewBox="-51.2 -51.2 614.41 614.41" xml:space="preserve" stroke="#ffffff" transform="matrix(1, 0, 0, 1, 0, 0)rotate(0)">
<g id="SVGRepo_bgCarrier" stroke-width="0"/>
<g id="SVGRepo_tracerCarrier" stroke-linecap="round" stroke-linejoin="round" stroke="#ffffff" stroke-width="1.0240239999999998"/>
<g id="SVGRepo_iconCarrier"> <g> <g> <path d="M309.11,393.499l-16.064-0.661c-3.093-13.952-7.701-31.936-14.272-52.309c21.675-54.464,57.003-117.013,80.043-155.648 c5.077,2.987,8.213,9.685,10.069,15.531c6.251,19.797,1.216,41.003-3.755,44.501c-9.643,6.763-11.989,20.075-5.205,29.717 c4.139,5.909,10.752,9.067,17.472,9.067c4.224,0,8.512-1.259,12.224-3.883c18.667-13.077,26.048-40.213,24.555-66.197 c7.701,9.429,12.736,20.288,12.736,31.851c0,11.776,9.557,21.333,21.333,21.333c11.797,0,21.333-9.557,21.333-21.333 c0-31.68-17.216-59.051-41.515-77.909c5.333,1.195,10.624,2.667,15.723,4.715c15.275,6.187,25.557,15.531,25.557,23.253 c0,11.776,9.536,21.333,21.333,21.333c11.776,0,21.333-9.557,21.333-21.333c0-26.091-19.52-49.579-52.224-62.805 c-20.373-8.235-45.056-11.947-68.16-9.387c1.941-14.123,1.728-29.227-1.088-44.629c-2.752-15.147-10.091-42.005-28.629-51.861 c-10.389-5.504-24.107-2.133-29.653,8.299c-5.525,10.389-2.347,22.784,8.043,28.309c3.797,3.883,7.659,16.107,9.109,30.485 c-18.773-22.421-46.229-36.949-77.205-36.949c-11.797,0-21.333,9.536-21.333,21.333c0,11.776,9.536,21.333,21.333,21.333 c10.88,0,20.971,3.285,29.781,8.661c-24.171,2.837-48.469,14.357-62.613,31.915c-7.36,9.195-5.909,22.613,3.264,30.016 c9.173,7.403,22.635,5.909,29.995-3.264c10.197-12.672,36.843-20.48,52.032-15.168c1.301,0.469,2.389,0.981,3.307,1.557 c-17.493,28.864-47.061,79.659-71.104,130.624C233.1,231.643,196.79,176.027,141.878,139.334c2.56-1.387,5.269-2.56,7.872-3.349 c18.219-5.461,36.757-0.512,39.872,4.245c6.507,9.877,19.712,12.587,29.568,6.101c9.835-6.464,12.565-19.691,6.101-29.547 c-11.968-18.176-35.52-25.707-58.773-25.664c7.68-4.501,16.064-7.296,24.768-7.296c11.776,0,21.333-9.536,21.333-21.333 c0-11.776-9.557-21.333-21.333-21.333c-32.64,0-62.763,18.923-81.749,46.912c0.341-8.021,1.728-15.616,4.331-21.717 c3.627-8.555,8.363-12.885,14.144-12.885c11.776,0,21.333-9.557,21.333-21.333S139.788,10.8,128.012,10.8 c-23.488,0-42.965,14.187-53.44,38.891c-7.403,17.429-9.728,40.341-6.037,62.805c-2.901-0.064-5.696-0.021-8.192,0.213 c-21.483,2.069-41.451,14.357-56.235,34.581c-6.955,9.536-4.864,22.869,4.651,29.824c3.797,2.773,8.213,4.096,12.565,4.096 c6.571,0,13.077-3.029,17.237-8.747c3.499-4.8,7.403-8.597,11.477-11.477C22.71,189.105,5.772,232.432,5.772,265.798 c0,11.776,9.557,21.333,21.333,21.333c11.797,0,21.333-9.557,21.333-21.333c0-14.144,4.565-30.507,11.819-45.44 c4.757,19.648,14.528,38.165,28.075,49.813c4.053,3.456,8.981,5.163,13.931,5.163c5.995,0,11.947-2.517,16.171-7.424 c7.68-8.939,6.656-22.4-2.261-30.08c-13.056-11.221-20.523-40.128-14.549-56.256c1.6-4.331,3.477-5.781,5.717-6.293 c1.003-0.128,2.005-0.341,3.029-0.341c0.107,0,0.235-0.064,0.363-0.064c1.259-0.021,2.453-0.448,3.691-0.704 c0.661-0.128,1.344-0.192,1.984-0.384c82.795,54.357,119.147,164.075,132.544,218.133l-6.955-0.043 c-0.235-0.021-0.555,0-0.853,0.021l-25.408,0.789C99.98,396.166,0.012,399.174,0.012,479.878c0,11.797,9.536,21.333,21.333,21.333 h469.333c11.776,0,21.333-9.536,21.333-21.333C512.012,401.691,417.996,397.894,309.11,393.499z"/> </g> </g> </g>
</svg>